<?xml version="1.0" encoding="iso-8859-1"?>
<!-- Generator: Adobe Illustrator 19.0.0, SVG Export Plug-In . SVG Version: 6.00 Build 0)  -->
<svg version="1.1" id="Layer_1" xmlns="http://www.w3.org/2000/svg" xmlns:xlink="http://www.w3.org/1999/xlink" x="0px" y="0px"
	 viewBox="0 0 504 504" style="enable-background:new 0 0 504 504;" xml:space="preserve">
<circle style="fill:#324A5E;" cx="252" cy="252" r="252"/>
<path style="fill:#FFD05B;" d="M358.2,352.2h-58.5v-24.6h46.1v-88.7h-46.1v-24.6h58.5c6.8,0,12.3,5.5,12.3,12.3V340
	C370.6,346.7,365,352.2,358.2,352.2z"/>
<path style="fill:#FF7058;" d="M316.6,401H155.3c-2.5,0-4.5-2-4.5-4.5V178.2h170.4v218.2C321.1,398.9,319.1,401,316.6,401z"/>
<g>
	<rect x="174.8" y="219.4" style="fill:#F1543F;" width="21" height="140.3"/>
	<rect x="225.4" y="219.4" style="fill:#F1543F;" width="21" height="140.3"/>
	<rect x="276" y="219.4" style="fill:#F1543F;" width="21" height="140.3"/>
</g>
<path style="fill:#E6E9EE;" d="M319.8,119.9c0.4-2.2,0.6-4.4,0.6-6.7c0-20.3-16.4-36.7-36.7-36.7c-11.2,0-21.3,5.1-28,13
	c-1.6-0.2-3.3-0.4-5-0.4c-7.5,0-14.5,2.3-20.3,6.2c-6.7-7.3-16.3-11.9-27-11.9c-20.3,0-36.7,16.4-36.7,36.7c0,0.1,0,0.1,0,0.2
	c-18.7,1.7-33.3,17.4-33.3,36.5c0,20.3,16.4,36.7,36.7,36.7c9.1,0,17.4-3.3,23.9-8.8c6.7,7.2,16.2,11.7,26.8,11.7
	c9.6,0,18.2-3.7,24.8-9.7c6,4.3,13.3,6.8,21.2,6.8c8.2,0,15.7-2.7,21.8-7.2c4.6,2,9.6,3.2,14.9,3.2c20.3,0,36.7-16.4,36.7-36.7
	C340.3,138.4,331.9,125.9,319.8,119.9z"/>
<g>
</g>
<g>
</g>
<g>
</g>
<g>
</g>
<g>
</g>
<g>
</g>
<g>
</g>
<g>
</g>
<g>
</g>
<g>
</g>
<g>
</g>
<g>
</g>
<g>
</g>
<g>
</g>
<g>
</g>
</svg>
